<svg id="_051518_US_BOPIS_Splash_row1_mod8_XL_text.svg" data-name="051518_US_BOPIS_Splash_row1_mod8_XL_text.svg" xmlns="http://www.w3.org/2000/svg" width="1404" height="640" viewBox="0 0 1404 640">
  <defs>
    <style>
      .cls-1, .cls-4 {
        fill: #fff;
      }

      .cls-1 {
        opacity: 0;
      }

      .cls-2 {
        fill: #0082ca;
      }

      .cls-2, .cls-3, .cls-4 {
        fill-rule: evenodd;
      }

      .cls-3 {
        fill: #0082cb;
      }

      .cls-5 {
        fill: #003764;
      }
    </style>
  </defs>
  <rect id="box" class="cls-1" width="1404" height="640"/>
  <path id="It_s_fun_fast_free_" data-name="It’s fun, fast, free!  " class="cls-2" d="M1101.94,609.406h9.3l5.51-32.789h-9.3Zm30.3-6.292a11.1,11.1,0,0,1-2.26.245c-1.48,0-2.31-.639-2.31-1.769a9.021,9.021,0,0,1,.24-1.623l1.48-8.75h4.38l1.03-6.047h-4.43l1.23-7.324-7.82.688-1.62,6.636h-3.99l-1.03,6.047h3.34l-1.47,8.75a22.573,22.573,0,0,0-.44,3.638,6.047,6.047,0,0,0,1.37,4.08c1.33,1.623,3.1,2.262,6.2,2.262a23.974,23.974,0,0,0,5.02-.541Zm5.51-12.536h3.74l5.41-7.177,1.13-6.784h-7.97l-1.23,7.521h3.25Zm34.34,0.2a7.444,7.444,0,0,0-3.69-4.179,15.251,15.251,0,0,0-8.07-2.016c-6.79,0-11.17,3.343-11.17,8.5,0,3.982,2.66,6.293,8.81,7.62,3.74,0.786,3.98.885,4.38,1.18a1.124,1.124,0,0,1,.39.786c0,0.885-1.33,1.524-3.15,1.524-2.9,0-4.38-.737-5.16-2.605l-7.58,1.081a7.406,7.406,0,0,0,3.35,4.867c2.36,1.622,5.41,2.409,9.25,2.409,3.59,0,6.54-.738,8.65-2.212a7.974,7.974,0,0,0,3.5-6.44c0-2.852-1.58-5.064-4.63-6.44a32.518,32.518,0,0,0-6.64-1.721c-1.77-.344-2.46-0.786-2.46-1.622,0-.934.98-1.475,2.66-1.475,2.31,0,3.74.738,4.43,2.311Zm15.1,18.631h8.9l3-18.041h6.05l1.04-6.2h-6.05c0.09-2.8,1.08-3.736,4.18-3.736a28.735,28.735,0,0,1,3.84.394l0.59-5.8a22.015,22.015,0,0,0-6.3-.836c-3.64,0-6.54.983-8.41,2.8-1.58,1.573-2.17,3.048-2.81,7.177h-3.94l-1.03,6.2h3.94Zm32.71,0h8.76l4.03-24.236h-9.2l-2.01,12c-0.69,3.982-2.07,6.047-4.14,6.047a1.535,1.535,0,0,1-1.67-1.77,15.3,15.3,0,0,1,.29-2.409l2.37-13.863h-9.35l-2.51,15.142a30.043,30.043,0,0,0-.49,3.981c0,3.343,2.75,5.752,6.59,5.752,3.54,0,5.9-1.475,8.12-5.162Zm13.82,0h9l2.46-14.551c0.45-2.606,1.63-3.884,3.5-3.884,1.47,0,2.21.688,2.21,2.016,0,0.3-.1.934-0.24,1.868l-2.42,14.551h9.21l2.75-16.567a15.123,15.123,0,0,0,.25-2.458c0-3.588-2.76-5.948-6.89-5.948a10.1,10.1,0,0,0-5.56,1.622,6.175,6.175,0,0,0-2.41,3.048l0.69-3.933h-8.47Zm28.97,0h4.04l-5.27,8.406h3.84l6.54-9.192,1.33-7.915h-9Zm27.4,0H1299l3-18.041h6.05l1.03-6.2h-6.05c0.1-2.8,1.08-3.736,4.18-3.736a28.437,28.437,0,0,1,3.84.394l0.59-5.8a21.916,21.916,0,0,0-6.3-.836c-3.64,0-6.54.983-8.41,2.8-1.57,1.573-2.16,3.048-2.8,7.177h-3.94l-1.03,6.2h3.93Zm42.61,0a11.639,11.639,0,0,1-.2-1.917,13.87,13.87,0,0,1,.25-2.8c1.32-7.571,2.11-12.241,2.11-13.421,0-4.228-4.23-6.784-11.17-6.784-4.03,0-7.23.787-9.59,2.409a9.751,9.751,0,0,0-3.54,4.375l7.92,1.573c0.98-1.868,2.16-2.7,4.03-2.7,1.67,0,2.81.786,2.81,1.966a5.486,5.486,0,0,1-.3,1.426c-0.74.049-1.33,0.147-1.62,0.147-6.35.59-7.73,0.787-9.94,1.622-3.74,1.377-5.86,4.13-5.86,7.669,0,4.08,3.25,6.981,7.73,6.981,3.44,0,5.85-1.377,7.97-4.523-0.1.983-.15,2.114-0.15,2.8a6.041,6.041,0,0,0,.1,1.18h9.45Zm-15.16-7.276c0-1.622.89-2.752,2.66-3.49a13.242,13.242,0,0,1,3.94-.737,12.6,12.6,0,0,1-.79,3.736,4.33,4.33,0,0,1-3.64,2.507A1.957,1.957,0,0,1,1317.54,602.13Zm43.88-11.355a7.408,7.408,0,0,0-3.69-4.179,15.251,15.251,0,0,0-8.07-2.016c-6.79,0-11.16,3.343-11.16,8.5,0,3.982,2.65,6.293,8.8,7.62,3.74,0.786,3.99.885,4.38,1.18a1.086,1.086,0,0,1,.39.786c0,0.885-1.32,1.524-3.14,1.524-2.91,0-4.38-.737-5.17-2.605l-7.58,1.081a7.44,7.44,0,0,0,3.35,4.867c2.36,1.622,5.41,2.409,9.25,2.409,3.59,0,6.54-.738,8.66-2.212a7.99,7.99,0,0,0,3.49-6.44c0-2.852-1.57-5.064-4.62-6.44a32.876,32.876,0,0,0-6.65-1.721c-1.77-.344-2.46-0.786-2.46-1.622,0-.934.99-1.475,2.66-1.475,2.31,0,3.74.738,4.43,2.311Zm17.17,12.339a11.164,11.164,0,0,1-2.26.245c-1.48,0-2.32-.639-2.32-1.769a8.681,8.681,0,0,1,.25-1.623l1.48-8.75h4.37l1.04-6.047h-4.43l1.23-7.324-7.82.688-1.63,6.636h-3.98l-1.04,6.047h3.35l-1.48,8.75a23.874,23.874,0,0,0-.44,3.638,6,6,0,0,0,1.38,4.08c1.33,1.623,3.1,2.262,6.2,2.262a24.043,24.043,0,0,0,5.02-.541Zm2.6,6.292h4.04l-5.27,8.406h3.84l6.54-9.192,1.33-7.915h-9Zm27.4,0h8.91l3-18.041h6.05l1.03-6.2h-6.05c0.1-2.8,1.08-3.736,4.18-3.736a28.437,28.437,0,0,1,3.84.394l0.59-5.8a21.916,21.916,0,0,0-6.3-.836c-3.64,0-6.54.983-8.41,2.8-1.57,1.573-2.16,3.048-2.8,7.177h-3.94l-1.03,6.2h3.93Zm17.56,0h9.2l1.68-9.881c0.78-4.67,2.5-6.391,6.29-6.391,0.4,0,.84,0,1.77.049l1.09-8.652c-0.5-.049-0.89-0.1-1.13-0.1-3.55,0-5.76,1.868-7.73,6.538l0.98-5.8h-8.06Zm37.19-8.554c-0.93,2.163-2.16,3.048-4.13,3.048-2.21,0-3.64-1.327-3.64-3.343a9.651,9.651,0,0,1,.15-1.474h16.68a13.117,13.117,0,0,0,.29-2.753c0-7.178-4.67-11.75-12-11.75-8.17,0-14.32,6.047-14.32,14.06,0,6.932,4.82,11.5,12.15,11.5a14.382,14.382,0,0,0,8.91-2.949,11.651,11.651,0,0,0,4.08-5.014Zm-6.93-6.44c0.49-2.7,2.11-4.375,4.33-4.375a3.012,3.012,0,0,1,3.05,3.2,6.239,6.239,0,0,1-.15,1.179h-7.23Zm35.66,6.44c-0.93,2.163-2.16,3.048-4.13,3.048-2.22,0-3.64-1.327-3.64-3.343a10.833,10.833,0,0,1,.14-1.474h16.68a12.588,12.588,0,0,0,.3-2.753c0-7.178-4.68-11.75-12.01-11.75-8.16,0-14.31,6.047-14.31,14.06,0,6.932,4.82,11.5,12.15,11.5a14.353,14.353,0,0,0,8.9-2.949,11.6,11.6,0,0,0,4.09-5.014Zm-6.94-6.44c0.5-2.7,2.12-4.375,4.33-4.375a3.012,3.012,0,0,1,3.05,3.2,7,7,0,0,1-.14,1.179h-7.24Zm22.24,4.031h5.56l6.1-21.826h-11.17Zm-3.6,10.963h9.3l1.48-8.7h-9.3Z" transform="translate(-349 -26)"/>
  <g id="Lock_Up_Form_3" data-name="Lock Up Form 3">
    <path class="cls-3" d="M1646,302c0,128.683-104.32,233-233,233s-233-104.318-233-233S1284.32,69,1413,69,1646,173.317,1646,302Z" transform="translate(-349 -26)"/>
    <path class="cls-4" d="M1453.21,168.509h31.9V137.13h-31.9v31.379Zm33.48,3.111h-35.06a1.569,1.569,0,0,1-1.58-1.554V135.575a1.57,1.57,0,0,1,1.58-1.556h35.06a1.572,1.572,0,0,1,1.59,1.556v34.491a1.571,1.571,0,0,1-1.59,1.554m-8.31-29.94a1.569,1.569,0,0,1-1.58-1.555v-7.22a7.641,7.641,0,0,0-15.28,0v7.22a1.58,1.58,0,0,1-3.16,0v-7.22a10.8,10.8,0,0,1,21.6,0v7.22a1.563,1.563,0,0,1-1.58,1.555m-9.22-32.119c-20.76,0-37.65,16.616-37.65,37.038,0,16.355,7.79,26.264,16.8,37.74,7.71,9.811,16.33,20.784,20.85,37.511,4.53-16.73,13.15-27.7,20.85-37.513,9.02-11.474,16.81-21.383,16.81-37.738,0-20.422-16.9-37.038-37.66-37.038m0,121.008a1.585,1.585,0,0,1-1.56-1.28c-3.66-19.971-12.88-31.7-21.79-43.048-8.98-11.43-17.46-22.225-17.46-39.642,0-22.137,18.3-40.148,40.81-40.148s40.82,18.011,40.82,40.148c0,17.417-8.48,28.212-17.46,39.642-8.92,11.344-18.13,23.077-21.8,43.048a1.577,1.577,0,0,1-1.56,1.28" transform="translate(-349 -26)"/>
    <path id="Buy_online._pickup_in-store." data-name="Buy online. pickup in-store." class="cls-4" d="M1257.56,241.037h19.18c7.71,0,10.21-.514,13.37-2.866a14.239,14.239,0,0,0,5.44-11.464c0-5.585-2.72-9.554-7.72-11.317a16.515,16.515,0,0,0,5.37-2.646,11.693,11.693,0,0,0,4.19-9.113,11.023,11.023,0,0,0-4.78-9.406c-2.79-1.764-4.92-2.2-11.54-2.2h-15.28Zm10.65-27.852,2.72-16.461,9.41-.074h0.73a22.1,22.1,0,0,1,5.88.514c2.87,0.882,4.56,3.381,4.56,6.688a9.4,9.4,0,0,1-3.09,6.981c-2.28,1.838-4.7,2.352-10.95,2.352h-9.26Zm-3.89,23,3.08-18.372h9.92c5.96,0,7.28.22,9.34,1.69,1.98,1.323,3.01,3.6,3.01,6.467,0,3.233-1.25,6.393-3.23,8.01-2.21,1.837-4.27,2.205-11.47,2.205h-10.65Zm79.96-44.167h-4.93l-5.07,30.424c-1.1,6.467-2.06,9.04-4.33,11.318a13.045,13.045,0,0,1-9.34,3.454c-6.39,0-10.51-3.6-10.51-9.186,0-1.838.08-1.838,1.03-7.57l4.78-28.44h-6.03l-4.48,27.118c-1.18,6.981-1.25,7.5-1.25,9.259,0,8.6,6.1,13.742,16.17,13.742,5.07,0,9.55-1.543,12.57-4.335,3.3-3.087,4.99-7.055,6.46-15.947Zm13.15,49.017h6.18l3.45-20.5,21.02-28.514h-6.03l-16.9,23.223-10.14-23.223h-6.62l12.5,28.514ZM1252.63,286.4c0,13.228,7.43,21.973,18.6,21.973,8.37,0,14.84-4.482,19.1-13.228a38.846,38.846,0,0,0,3.68-16.167c0-13.081-7.28-21.532-18.6-21.532-7.49,0-13.89,3.968-18.15,11.391A36.2,36.2,0,0,0,1252.63,286.4Zm6.32,1.25a41.659,41.659,0,0,1,2.28-13.008c2.79-8.01,7.64-12.272,13.96-12.272,7.57,0,12.57,5.952,12.57,14.991a53.611,53.611,0,0,1-1.84,12.2c-2.72,8.966-7.93,13.89-14.69,13.89C1263.73,303.446,1258.95,297.346,1258.95,287.646Zm39.91,19.768h4.85l6.98-41.888,19.26,41.888h4.77l8.23-49.017h-4.85l-6.54,39.1-17.78-39.1h-6.69Zm48.14,0h30.28l0.88-5.218h-24.33l7.35-43.8h-5.95Zm37.41,0h5.95l8.23-49.017h-5.95Zm18,0h4.85l6.99-41.888,19.25,41.888h4.78l8.23-49.017h-4.85l-6.54,39.1-17.79-39.1h-6.69Zm48.14,0h32.48l0.89-5.218h-26.53l3.01-17.931h21.02l0.81-4.85h-21.02l2.72-16.167h24.54l0.81-4.851h-30.5Zm39.25,0h8.08l1.4-8.231h-8.09Zm-241.43,66.377h14.18l3.02-17.931h9.55c5.22,0,9.33-1.47,12.27-4.262a17.187,17.187,0,0,0,5.07-12.126,13.953,13.953,0,0,0-6.76-12.346c-3.3-1.911-5.66-2.352-12.93-2.352H1256.6Zm18.96-28.44,1.69-9.994h2.94c4.19,0,6.47,1.69,6.47,4.776,0,3.381-2.72,5.218-7.72,5.218h-3.38Zm24.18,28.44h13.89l8.23-49.017h-13.89Zm53.14-18.96c-1.84,6.1-3.9,8.3-7.72,8.3-3.9,0-5.88-2.572-5.88-7.643a56.923,56.923,0,0,1,2.5-14.4c1.54-4.41,3.67-6.32,6.91-6.32a5.139,5.139,0,0,1,4.99,3.233c0.67,1.544.89,2.719,0.89,5.732l13.81-1.028c-0.29-5.733-1.25-8.819-4.11-12.347-3.6-4.409-8.68-6.687-15.14-6.687-9.26,0-16.54,4.409-21.02,12.714a33.459,33.459,0,0,0-4.12,16.167c0,13.375,8.02,22.267,20.21,22.267a19.91,19.91,0,0,0,15.58-6.761c3.02-3.234,4.56-6.1,6.25-11.538Zm15.8,18.96h13.59l1.99-11.9,7.49-8.3,5.52,20.209h14.47l-9.4-30.424,16.53-18.593h-14.03l-6.99,7.864c-1.47,1.616-2.79,3.527-4.26,5.217-2.13,2.572-3.45,4.042-3.82,4.483a17.358,17.358,0,0,0-3.01,5l2.2-13.375,1.55-9.186h-13.6Zm94.14-49.017h-11.68l-5.15,30.645c-0.51,3.16-.95,4.556-1.76,5.659a7.146,7.146,0,0,1-5.51,2.351c-3.6,0-6.18-1.984-6.18-4.85a27.994,27.994,0,0,1,.37-3.674l5.07-30.131h-14.92l-5.07,30.131a32.557,32.557,0,0,0-.44,5.291c0,3.527.66,5.879,2.43,8.083,3.08,4.042,8.67,6.247,15.94,6.247,7.06,0,13.01-2.131,16.61-5.879,2.72-2.94,3.97-6.1,5.22-13.742Zm-0.14,49.017h14.18l3.01-17.931h9.56c5.22,0,9.33-1.47,12.27-4.262a17.187,17.187,0,0,0,5.07-12.126,13.953,13.953,0,0,0-6.76-12.346c-3.31-1.911-5.66-2.352-12.93-2.352h-16.17Zm18.96-28.44,1.69-9.994h2.94c4.19,0,6.46,1.69,6.46,4.776,0,3.381-2.71,5.218-7.71,5.218h-3.38ZM1246.9,440.168h13.89l8.23-49.017h-13.89Zm22.86,0h11.98l3.96-24.031a25.924,25.924,0,0,0,.59-5.144l-0.07-1.837c0.59,2.866,2.35,7.128,4.85,12.2l9.33,18.813h10.88l8.23-49.017h-11.69l-3.16,18.593c-0.51,3.233-.95,6.761-0.95,7.863a14.934,14.934,0,0,0,.15,2.352c-0.96-3.381-3.61-9.554-7.35-17.49l-5.37-11.318h-13.15Zm48.8-12.713h18.37l1.84-10.8h-18.38Zm66.06-24.913a14.732,14.732,0,0,0-6.17-8.157c-3.89-2.719-8.67-4.042-14.7-4.042-5.73,0-10.14,1.176-13.52,3.6a15.254,15.254,0,0,0-6.24,12.419c0,6.247,3.52,10.509,10.95,13.228l9.62,3.528a4.959,4.959,0,0,1,1.62,1.029,2.65,2.65,0,0,1,.81,1.837c0,2.278-2.21,3.674-5.66,3.674-4.92,0-7.64-1.543-9.11-5.144l-14.11,2.719c1.69,4.409,3.38,6.688,6.39,8.892,4.41,3.16,10.07,4.777,16.53,4.777,12.87,0,21.61-6.908,21.61-17.049a12.3,12.3,0,0,0-5.66-10.583c-2.64-1.837-2.72-1.91-12.71-5.364-3.53-1.25-4.48-2.058-4.48-3.675,0-1.984,1.83-3.233,4.77-3.233,3.75,0,6.54,1.764,7.42,4.777Zm7.72,37.626h14.26l6.32-37.92h10.8L1425.56,391h-35.42l-1.91,11.244h10.51Zm31.46-20.8c0,13.154,8.67,22.046,21.46,22.046a23.33,23.33,0,0,0,19.69-10.361,34.275,34.275,0,0,0,5.73-18.667c0-13.668-8.3-22.487-21.09-22.487a24.7,24.7,0,0,0-17.93,7.643C1426.81,402.91,1423.8,411.214,1423.8,419.371Zm15.36,3.086a59.631,59.631,0,0,1,2.2-13.668c1.55-4.924,4.19-7.5,7.72-7.5,3.97,0,6.32,2.792,6.32,7.643a68.269,68.269,0,0,1-2.13,12.86c-1.4,5.512-4.04,8.231-7.87,8.231C1441.22,430.027,1439.16,427.528,1439.16,422.457Zm33.51,17.711h13.97l3.08-18.592h5.81l4.33,18.592h14.55l-5.36-20.5a16.121,16.121,0,0,0,5.29-2.866,14.876,14.876,0,0,0,5-11.391,13.867,13.867,0,0,0-5.51-11.538c-2.72-1.837-6.4-2.719-11.61-2.719H1480.9Zm18.82-28.807,1.61-9.921h5.15c4.41,0,6.68,1.616,6.68,4.63a5.059,5.059,0,0,1-2.2,4.041c-1.32.956-2.79,1.25-5.73,1.25h-5.51Zm29.98,28.807h36.09l1.91-11.244h-21.9l1.47-8.671h17.63l1.77-10.656H1540.8l1.25-7.716h21.02l1.76-10.73H1529.7Zm42.92,0h13.45l2.21-13.007H1566.6Z" transform="translate(-349 -26)"/>
  </g>
  <circle class="cls-5" cx="766.5" cy="169.5" r="124.5"/>
  <path id="Want_your_fashion_in_a_flash_" data-name="Want your  fashion in  a flash?" class="cls-4" d="M1034.26,171.848h6.01l4.13-10.219,0.77-1.881,0.59-1.7,0.37-.959,1.11,14.756h6.45l10.14-24.606h-5.68l-4.17,10.625-1.18,3.061-0.33,1.033c-0.07-1.365-.14-2.287-0.26-3.578l-0.84-11.141h-5.94l-4.86,11.879-0.48,1.18a8.531,8.531,0,0,0-.37,1.107l-0.15.553c-0.11-1-.22-1.955-0.33-3.578l-0.89-11.141h-6.85Zm45.36,0a7.973,7.973,0,0,1-.15-1.439,10.391,10.391,0,0,1,.18-2.1c1-5.681,1.59-9.185,1.59-10.07,0-3.173-3.17-5.091-8.37-5.091a12.515,12.515,0,0,0-7.19,1.807,7.348,7.348,0,0,0-2.65,3.284l5.93,1.18a3.162,3.162,0,0,1,3.02-2.029c1.26,0,2.11.59,2.11,1.476a4.17,4.17,0,0,1-.23,1.069c-0.55.037-.99,0.111-1.21,0.111-4.76.443-5.79,0.59-7.45,1.217-2.8,1.033-4.38,3.1-4.38,5.755,0,3.062,2.43,5.239,5.78,5.239a6.645,6.645,0,0,0,5.97-3.394c-0.07.738-.11,1.586-0.11,2.1a4.261,4.261,0,0,0,.08.886h7.08Zm-11.36-5.46a2.747,2.747,0,0,1,1.99-2.619,10.015,10.015,0,0,1,2.95-.553,9.007,9.007,0,0,1-.59,2.8,3.24,3.24,0,0,1-2.73,1.882A1.466,1.466,0,0,1,1068.26,166.388Zm14.64,5.46h6.75l1.84-10.92c0.34-1.955,1.22-2.914,2.62-2.914a1.41,1.41,0,0,1,1.66,1.513,11.4,11.4,0,0,1-.19,1.4l-1.8,10.92h6.89l2.07-12.432a11.584,11.584,0,0,0,.18-1.844c0-2.693-2.06-4.464-5.16-4.464a7.609,7.609,0,0,0-4.17,1.217,4.626,4.626,0,0,0-1.8,2.287l0.51-2.951h-6.34Zm33.3-4.722a8.351,8.351,0,0,1-1.7.184c-1.1,0-1.73-.479-1.73-1.328a6.439,6.439,0,0,1,.19-1.217l1.1-6.566h3.28l0.78-4.538h-3.32l0.92-5.5-5.86.516-1.22,4.98h-2.98l-0.78,4.538h2.51l-1.11,6.566a17.245,17.245,0,0,0-.33,2.73,4.532,4.532,0,0,0,1.03,3.062c1,1.217,2.33,1.7,4.65,1.7a17.955,17.955,0,0,0,3.76-.406Zm9.78,6.05-0.04,4.869a14.244,14.244,0,0,0,2.87.3c4.39,0,6.45-1.475,8.7-6.234l8.67-18.445h-4.94l-3.58,7.71c-0.15.295-.29,0.627-0.85,1.955L1136.33,161l-1.54-7.341h-7.23l4.39,17.08a5.8,5.8,0,0,1,.18,1.181c0,1-.88,1.475-2.76,1.475C1128.63,173.4,1127.75,173.323,1125.98,173.176Zm21.42-3.21a9.207,9.207,0,0,0,6.52,2.435,10.407,10.407,0,0,0,10.73-10.55c0-5.239-3.58-8.632-9.1-8.632-6.16,0-10.58,4.5-10.58,10.734A7.6,7.6,0,0,0,1147.4,169.966Zm4.68-4.832a21.288,21.288,0,0,1,.89-5.275c0.51-1.55,1.29-2.287,2.39-2.287,1.33,0,2.1,1.032,2.1,2.877a18.626,18.626,0,0,1-.81,5.164c-0.55,1.66-1.25,2.361-2.43,2.361C1152.85,167.974,1152.08,166.941,1152.08,165.134Zm25.04,6.714h6.56l3.02-18.187h-6.89l-1.51,9c-0.52,2.988-1.55,4.538-3.1,4.538a1.15,1.15,0,0,1-1.25-1.328,10.423,10.423,0,0,1,.22-1.808l1.77-10.4h-7.01l-1.88,11.362a23.1,23.1,0,0,0-.36,2.988c0,2.509,2.06,4.316,4.94,4.316,2.65,0,4.42-1.106,6.08-3.873Zm10.36,0h6.9l1.25-7.415c0.59-3.5,1.88-4.8,4.72-4.8,0.29,0,.63,0,1.33.037l0.81-6.492c-0.37-.037-0.67-0.074-0.85-0.074-2.66,0-4.31,1.4-5.79,4.906l0.74-4.353h-6.05Zm-158.67,36.471h6.67l2.25-13.539h4.53l0.78-4.648h-4.54c0.08-2.1.81-2.8,3.14-2.8a21.356,21.356,0,0,1,2.87.295l0.44-4.352a16.39,16.39,0,0,0-4.72-.628,8.838,8.838,0,0,0-6.3,2.1c-1.18,1.181-1.62,2.287-2.1,5.386h-2.95l-0.77,4.648h2.95Zm31.93,0a7.973,7.973,0,0,1-.15-1.439,10.391,10.391,0,0,1,.18-2.1c1-5.681,1.59-9.185,1.59-10.071,0-3.172-3.17-5.09-8.37-5.09a12.515,12.515,0,0,0-7.19,1.807,7.345,7.345,0,0,0-2.65,3.283l5.93,1.181a3.162,3.162,0,0,1,3.02-2.029c1.26,0,2.11.59,2.11,1.475a4.167,4.167,0,0,1-.23,1.07c-0.55.037-.99,0.111-1.21,0.111-4.76.443-5.79,0.59-7.45,1.217-2.8,1.033-4.38,3.1-4.38,5.755,0,3.062,2.43,5.238,5.78,5.238a6.646,6.646,0,0,0,5.97-3.393c-0.07.737-.11,1.586-0.11,2.1a4.261,4.261,0,0,0,.08.886h7.08Zm-11.36-5.46a2.747,2.747,0,0,1,1.99-2.619,10.037,10.037,0,0,1,2.95-.554,9.008,9.008,0,0,1-.59,2.8,3.239,3.239,0,0,1-2.73,1.881A1.465,1.465,0,0,1,1049.38,202.859Zm32.89-8.522a5.581,5.581,0,0,0-2.76-3.135,11.445,11.445,0,0,0-6.05-1.513c-5.09,0-8.37,2.509-8.37,6.382,0,2.988,1.99,4.722,6.6,5.718,2.8,0.59,2.99.664,3.28,0.885a0.819,0.819,0,0,1,.3.591c0,0.664-1,1.143-2.36,1.143-2.18,0-3.28-.553-3.87-1.955l-5.68.812a5.572,5.572,0,0,0,2.51,3.652,11.93,11.93,0,0,0,6.93,1.807,11.234,11.234,0,0,0,6.48-1.66,5.977,5.977,0,0,0,2.62-4.832c0-2.14-1.18-3.8-3.46-4.833a24.787,24.787,0,0,0-4.98-1.291c-1.33-.258-1.84-0.59-1.84-1.217,0-.7.73-1.107,1.99-1.107,1.73,0,2.8.553,3.32,1.734Zm1.15,13.982h6.89l1.81-10.735a5.452,5.452,0,0,1,.55-1.992,2.413,2.413,0,0,1,2.03-1.07,1.566,1.566,0,0,1,1.73,1.439,14.7,14.7,0,0,1-.22,1.623l-1.8,10.735h6.89l1.92-11.473a18.452,18.452,0,0,0,.25-2.545,4.048,4.048,0,0,0-1.62-3.616,6.336,6.336,0,0,0-3.5-1.069,6.219,6.219,0,0,0-5.35,2.766l1.44-8.669h-6.89Zm25-19.81h7.04l0.89-5.349h-7.04Zm-3.32,19.81h7.04l3.06-18.187h-7.04Zm13.79-1.882a9.219,9.219,0,0,0,6.53,2.435,10.408,10.408,0,0,0,10.73-10.551c0-5.238-3.58-8.632-9.11-8.632-6.16,0-10.58,4.5-10.58,10.735A7.634,7.634,0,0,0,1118.89,206.437Zm4.69-4.832a21.752,21.752,0,0,1,.88-5.276c0.52-1.549,1.29-2.287,2.4-2.287,1.32,0,2.1,1.033,2.1,2.878a18.626,18.626,0,0,1-.81,5.164c-0.56,1.66-1.26,2.361-2.44,2.361C1124.35,204.445,1123.58,203.412,1123.58,201.605Zm13.83,6.714h6.74L1146,197.4c0.33-1.955,1.21-2.914,2.61-2.914a1.409,1.409,0,0,1,1.66,1.512,12.922,12.922,0,0,1-.18,1.4l-1.81,10.92h6.89l2.07-12.432a11.585,11.585,0,0,0,.18-1.845c0-2.693-2.06-4.463-5.16-4.463a7.542,7.542,0,0,0-4.16,1.217,4.636,4.636,0,0,0-1.81,2.287l0.52-2.951h-6.34Zm34.11-19.81h7.04l0.88-5.349h-7.04Zm-3.32,19.81h7.04l3.06-18.187h-7.04Zm10.84,0h6.75l1.84-10.92c0.33-1.955,1.21-2.914,2.62-2.914A1.406,1.406,0,0,1,1191.9,196a12.922,12.922,0,0,1-.18,1.4l-1.81,10.92h6.9l2.06-12.432a11.674,11.674,0,0,0,.19-1.845c0-2.693-2.07-4.463-5.17-4.463a7.542,7.542,0,0,0-4.16,1.217,4.636,4.636,0,0,0-1.81,2.287l0.52-2.951h-6.34Zm-132.58,36.47a8.733,8.733,0,0,1-.14-1.438,10.391,10.391,0,0,1,.18-2.1c1-5.681,1.59-9.186,1.59-10.071,0-3.172-3.17-5.091-8.37-5.091a12.514,12.514,0,0,0-7.19,1.808,7.34,7.34,0,0,0-2.65,3.283l5.93,1.181a3.162,3.162,0,0,1,3.02-2.029c1.26,0,2.11.59,2.11,1.475a4.175,4.175,0,0,1-.23,1.07c-0.55.037-.99,0.111-1.21,0.111-4.76.442-5.79,0.59-7.45,1.217-2.8,1.033-4.39,3.1-4.39,5.755,0,3.062,2.44,5.238,5.79,5.238a6.645,6.645,0,0,0,5.97-3.394c-0.07.738-.11,1.587-0.11,2.1a4.253,4.253,0,0,0,.08.885h7.07Zm-11.35-5.459a2.736,2.736,0,0,1,1.99-2.62,9.932,9.932,0,0,1,2.95-.553,9.008,9.008,0,0,1-.59,2.8,3.239,3.239,0,0,1-2.73,1.881A1.465,1.465,0,0,1,1035.11,239.33Zm24.86,5.459h6.78l2.25-13.5h2.84l0.77-4.685h-2.8c0.26-2.214.92-2.988,2.47-2.988a11.116,11.116,0,0,1,1.36.11l0.7-4.279a12.847,12.847,0,0,0-3.42-.406c-2.84,0-4.8.664-6.05,2.1-0.96,1.07-1.25,1.992-1.84,5.46H1060l-0.77,4.685h2.99Zm11.31,0h7.08l4.13-24.6h-7.11Zm29.5,0a8.733,8.733,0,0,1-.14-1.438,10.391,10.391,0,0,1,.18-2.1c0.99-5.681,1.58-9.186,1.58-10.071,0-3.172-3.17-5.091-8.36-5.091a12.493,12.493,0,0,0-7.19,1.808,7.34,7.34,0,0,0-2.65,3.283l5.93,1.181a3.162,3.162,0,0,1,3.02-2.029c1.26,0,2.1.59,2.1,1.475a4.05,4.05,0,0,1-.22,1.07c-0.55.037-.99,0.111-1.21,0.111-4.76.442-5.79,0.59-7.45,1.217-2.8,1.033-4.39,3.1-4.39,5.755,0,3.062,2.44,5.238,5.79,5.238a6.645,6.645,0,0,0,5.97-3.394c-0.07.738-.11,1.587-0.11,2.1a4.253,4.253,0,0,0,.08.885h7.07Zm-11.35-5.459a2.736,2.736,0,0,1,1.99-2.62,9.932,9.932,0,0,1,2.95-.553,9.642,9.642,0,0,1-.59,2.8,3.239,3.239,0,0,1-2.73,1.881A1.465,1.465,0,0,1,1089.43,239.33Zm32.89-8.522a5.6,5.6,0,0,0-2.77-3.135,11.384,11.384,0,0,0-6.04-1.513c-5.09,0-8.37,2.509-8.37,6.382,0,2.988,1.99,4.722,6.6,5.718,2.8,0.59,2.98.664,3.28,0.885a0.843,0.843,0,0,1,.29.59c0,0.664-.99,1.144-2.35,1.144-2.18,0-3.29-.553-3.88-1.955l-5.67.811a5.562,5.562,0,0,0,2.5,3.653,11.951,11.951,0,0,0,6.93,1.807,11.246,11.246,0,0,0,6.49-1.66,5.978,5.978,0,0,0,2.62-4.832c0-2.14-1.18-3.8-3.47-4.833a24.356,24.356,0,0,0-4.97-1.291c-1.33-.258-1.84-0.59-1.84-1.217,0-.7.73-1.107,1.99-1.107,1.73,0,2.8.553,3.31,1.734Zm1.15,13.981h6.89l1.81-10.735a5.459,5.459,0,0,1,.55-1.992,2.4,2.4,0,0,1,2.03-1.069,1.572,1.572,0,0,1,1.73,1.438,14.636,14.636,0,0,1-.22,1.623l-1.81,10.735h6.9l1.91-11.472a17.177,17.177,0,0,0,.26-2.546,4.048,4.048,0,0,0-1.62-3.615,6.337,6.337,0,0,0-3.5-1.07,6.209,6.209,0,0,0-5.35,2.767l1.44-8.669h-6.89Zm27.28-7.82h5.61c0.22-1.291.73-1.845,3.13-3.247,3.43-2.028,4.79-4.021,4.79-6.972a6.38,6.38,0,0,0-2.65-5.422,10.387,10.387,0,0,0-5.79-1.7,9.053,9.053,0,0,0-6.67,2.656,10.056,10.056,0,0,0-2.58,4.758l5.64,1.218c0.37-2.472,1.33-3.652,2.91-3.652a2.039,2.039,0,0,1,2.07,2.139c0,1.365-.63,2.214-3.1,4.243-2.25,1.881-3.36,3.762-3.36,5.828v0.148Zm-1.65,7.82h6.74l1.03-6.271h-6.74Z" transform="translate(-349 -26)"/>
</svg>
